<?xml version="1.0" encoding="UTF-8" standalone="no"?>
<!-- Created with Inkscape (http://www.inkscape.org/) -->

<svg
   version="1.1"
   id="svg1"
   width="506.93286"
   height="169.13266"
   viewBox="0 0 506.93286 169.13266"
   xmlns="http://www.w3.org/2000/svg"
   xmlns:svg="http://www.w3.org/2000/svg">
  <defs
     id="defs1">
    <clipPath
       clipPathUnits="userSpaceOnUse"
       id="clipPath12">
      <path
         d="M 0,841.89 H 595.276 V 0 H 0 Z"
         transform="translate(-109.7823,-407.81171)"
         id="path12" />
    </clipPath>
    <clipPath
       clipPathUnits="userSpaceOnUse"
       id="clipPath14">
      <path
         d="M 0,841.89 H 595.276 V 0 H 0 Z"
         transform="translate(-254.33451,-491.14451)"
         id="path14" />
    </clipPath>
    <clipPath
       clipPathUnits="userSpaceOnUse"
       id="clipPath16">
      <path
         d="M 0,841.89 H 595.276 V 0 H 0 Z"
         transform="translate(-394.54391,-453.21141)"
         id="path16" />
    </clipPath>
    <clipPath
       clipPathUnits="userSpaceOnUse"
       id="clipPath18">
      <path
         d="M 0,841.89 H 595.276 V 0 H 0 Z"
         transform="translate(-419.45951,-506.37661)"
         id="path18" />
    </clipPath>
    <clipPath
       clipPathUnits="userSpaceOnUse"
       id="clipPath20">
      <path
         d="M 0,841.89 H 595.276 V 0 H 0 Z"
         transform="translate(-444.74991,-454.80271)"
         id="path20" />
    </clipPath>
  </defs>
  <g
     id="layer-MC1"
     transform="translate(-129.5023,-427.06472)">
    <path
       id="path11"
       d="m 0,0 c 0,0 -12.521,-7.399 -12.521,-0.759 0,0 -0.759,6.83 1.328,9.296 0,0 4.363,6.261 13.28,6.64 0,0 8.347,-1.897 17.074,-0.759 0,0 14.039,0.949 17.074,3.225 0,0 4.364,3.795 4.364,6.071 0,0 2.087,5.692 9.106,2.277 0,0 5.312,-3.794 11.952,-3.036 0,0 10.055,1.898 17.075,1.518 0,0 0.758,-0.094 6.829,2.609 1.983,0.883 4.11,1.508 6.217,2.006 2.044,0.483 4.124,0.813 6.22,0.939 2.812,0.17 7.195,-0.298 7.483,3.742 0,0 -0.189,3.415 6.071,4.743 0,0 7.209,1.328 7.399,6.64 0,0 2.087,6.071 -7.589,5.502 -3.647,-0.541 -7.348,-0.852 -11.03,-0.991 -2.913,-0.11 -5.856,-0.118 -8.753,0.234 -2.244,0.272 -4.453,0.876 -6.716,0.984 -1.67,0.079 -3.298,-0.229 -4.969,-0.158 -3.019,0.128 -6.885,0.392 -9.32,2.397 0,0 -4.743,2.656 -8.348,0 0,0 -2.656,-2.277 -5.881,-2.277 0,0 -5.122,-1.707 -6.64,0 0,0 -1.328,0.759 -3.984,0.19 0,0 -8.916,-2.002 -8.158,3.268 0,0 2.467,8.305 -5.312,9.064 0,0 -17.264,0.759 -19.92,8.916 0,0 -3.604,9.676 7.589,15.177 0,0 8.158,5.312 26.75,5.312 4.888,-0.053 9.818,-0.139 14.636,-1.046 3.588,-0.676 6.707,-2.752 10.149,-3.448 5.977,-1.209 12.928,0.737 18.849,1.269 0,0 9.189,0.828 11.824,-4.259 1.22,-2.354 5.358,0.714 6.272,1.942 2.308,3.101 1.877,5.194 -0.305,8.059 0,0 -2.808,3.685 -10.529,7.721 0,0 -3.334,1.93 -1.755,7.195 0.888,2.958 7.581,3.447 9.827,1.93 0,0 13.513,-9.125 16.671,-9.651 0,0 9.477,-1.755 9.828,-5.265 0,0 2.807,-4.563 -1.931,-7.897 0,0 -8.774,-6.142 -2.632,-10.003 0,0 11.739,-5.957 9.657,-9.643 -1.415,-2.503 -3.888,-4.068 -6.728,-4.399 -2.089,-0.244 -7.056,2.464 -8.343,1.627 -1.151,-0.747 -1.066,-3.634 -2.483,-4.431 0,0 -2.808,-1.58 -6.317,-0.527 0,0 -2.282,1.931 -4.914,0.527 0,0 -2.457,-0.527 -2.457,2.281 0,0 1.404,6.844 -4.036,8.774 0,0 -5.44,2.633 -8.774,1.755 -2.852,-0.75 -6.387,1.148 -9.332,1.27 -3.14,0.131 -5.895,0.932 -8.919,1.538 0,0 -6.142,1.228 -9.652,3.51 0,0 -2.632,1.755 -8.774,0.526 0,0 -5.265,0 -6.844,1.404 0,0 -4.563,3.159 -6.844,-5.967 0,0 -4.036,-8.598 11.231,-11.582 0,0 7.195,-2.105 12.46,-2.456 0,0 3.509,1.052 9.476,-1.931 0,0 7.37,-1.579 10.354,-0.526 0,0 5.44,2.457 10.002,-1.053 0,0 4.037,-2.106 18.426,-0.527 0,0 8.073,2.282 12.811,-0.526 0,0 3.158,-1.053 6.141,0.175 2.14,0.881 6.764,-1.592 8.261,-2.852 2.013,-1.695 2.993,-4.092 3.066,-6.696 0.043,-1.547 -0.065,-4.055 -0.802,-5.428 -1.017,-1.891 -3.684,-1.928 -3.855,-4.503 0,0 -2.106,-9.827 -12.811,-15.091 0,0 -7.721,-6.669 -27.2,-6.493 0,0 -2.806,0.35 -5.262,-0.351 -2.661,-0.759 -5.259,-0.129 -7.943,10e-4 -2.279,0.11 -4.547,-0.315 -6.789,-0.738 -2.519,0 -5.411,-1.021 -7.893,-1.489 -1.308,-0.247 -2.694,-0.661 -4.02,-0.67 -1.104,-0.006 -2.315,0.625 -3.375,-0.035 -0.849,-0.53 -1.156,-1.539 -2.086,-1.99 -1.004,-0.486 -2.313,-0.26 -3.382,-0.533 C 57.786,11.798 57.163,10.246 55.362,9.817 53.915,9.472 52.393,9.436 50.924,9.225 48.115,8.82 45.233,8.679 42.449,9.338 39.503,10.035 36.05,11.824 34.04,8.421 c 0,0 -4.037,-6.669 -12.109,-3.685 0,0 -6.498,4.033 -14.214,-0.351 z"
       style="fill:#ffffff;fill-opacity:1;fill-rule:nonzero;stroke:none"
       transform="matrix(1.3333333,0,0,-1.3333333,146.3764,578.77107)"
       clip-path="url(#clipPath12)" />
    <path
       id="path13"
       d="m 0,0 c -0.076,0.206 -0.156,0.412 -0.24,0.62 -1.082,2.656 -2.457,5.198 -3.263,7.962 -1.588,5.447 4.001,9.32 2.223,16.38 -0.602,2.39 3.382,4.126 5.834,3.878 1.32,-0.134 2.503,-0.935 3.35,-1.956 2.13,-2.568 1.076,-6.282 1.748,-9.551 C 10.493,13.245 12.211,9.425 8.15,4.817 5.008,1.253 7.797,-4.683 8.005,-9.43 c 0.099,-2.258 0.816,-5.142 3.064,-5.385 2.51,-0.271 3.667,2.942 5.367,4.81 1.416,1.556 3.503,2.271 5.463,3.033 9.578,3.72 18.179,9.922 24.733,17.835 2.246,2.713 4.289,5.655 7.057,7.834 2.603,2.049 5.64,3.507 8.091,5.736 3.306,3.009 6.129,1.341 8.447,2.988 1.757,1.249 3.94,1.735 6.08,2.004 5.674,0.712 13.157,0.212 15.73,-4.693 0.196,-0.373 0.522,-0.702 0.527,-1.124 C 92.576,22.67 91.428,22.284 90.539,21.984 82.234,19.178 72.576,20.858 65.504,17.409 60.835,15.132 56.165,12.378 53.253,8.077 51.93,6.124 51.017,3.915 49.686,1.967 47.919,-0.619 45.479,-2.657 43.071,-4.66 c -2.906,-2.419 -5.833,-4.851 -9.127,-6.707 -3.185,-1.795 -6.694,-3.041 -9.622,-5.229 -2.928,-2.188 -5.271,-5.697 -4.704,-9.308 0.617,-3.931 4.12,-6.478 5.827,-9.885 0.843,-1.682 0.884,-3.585 1.748,-5.254 1.009,-1.95 2.61,-3.505 3.829,-5.314 1.966,-2.916 3.932,-5.833 5.898,-8.749 1.583,-2.348 3.171,-4.706 4.402,-7.256 1.16,-2.402 2.007,-4.98 3.546,-7.159 3.067,-4.343 8.753,-6.961 10.081,-12.109 0.36,-1.396 0.263,-3.08 -0.837,-4.012 -1.463,-1.238 -3.823,-0.395 -5.05,1.077 -1.227,1.472 -1.755,3.394 -2.729,5.044 -1.931,3.269 -5.445,5.238 -7.995,8.051 -5.531,6.104 -6.158,15.718 -12.264,21.248 -2.491,2.255 -5.789,3.712 -7.588,6.549 -2.401,3.784 -1.922,9.636 -5.882,11.736 -1.864,0.988 -2.121,-2.374 -2.468,-3.548 -0.992,-3.356 -2.629,-7.282 -2.369,-10.834 0.195,-2.915 1.84,-5.514 2.62,-8.329 2.37,-8.551 -4.174,-20.638 3.33,-27.502 1.899,-1.737 4.514,-2.667 6.069,-4.717 1.27,-1.676 1.241,-5.618 -1.441,-5.96 -0.957,-0.122 -1.864,0.407 -2.684,0.916 -5.029,3.118 -9.837,9.111 -14.009,10.788 -5.53,2.223 -5.799,11.116 -3.634,16.669 0.785,2.013 2.083,3.829 2.589,5.929 0.864,3.578 -0.699,7.307 -0.451,10.98 0.208,3.081 1.672,5.926 2.34,8.94 0.716,3.233 -0.336,6.641 0.287,9.892 1.38,7.21 -0.917,13.991 -1.375,20.986 C 1.228,-4.978 0.938,-2.548 0,0"
       style="fill:#ffffff;fill-opacity:1;fill-rule:nonzero;stroke:none"
       transform="matrix(1.3333333,0,0,-1.3333333,339.11267,467.66067)"
       clip-path="url(#clipPath14)" />
    <path
       id="path15"
       d="m 0,0 c -3.497,-9.864 -7.265,-20.585 -18.835,-23.355 -6.191,-1.483 -11.206,-6.23 -17.306,-8.04 -1.906,-0.565 -3.831,-1.061 -5.77,-1.497 0,0 -7.401,-0.962 -16.263,0.697 -5.05,0.945 -10.575,2.741 -15.474,6.052 0,0 -5.648,4.372 -9.114,5.106 -5.082,1.075 -8.831,5.354 -10.22,10.215 -1.36,4.76 -2.171,9.692 -2.302,14.645 -0.065,2.473 0.265,5.041 0.559,7.491 0.158,1.318 0.157,3.184 0.771,4.397 0.531,1.05 2.603,2.178 3.538,2.695 1.716,0.951 1.764,4.94 2.364,6.128 2.61,5.176 4.937,6.788 10.285,9.025 1.313,0.549 2.673,0.936 4.028,1.342 2.608,0.78 4.924,2.115 7.536,2.902 2.831,0.854 5.825,1.402 8.298,3.125 0.532,0.371 1.167,0.813 1.77,0.573 1.121,-0.448 0.74,-2.641 0.544,-3.531 -0.656,-2.988 -1.112,-6.637 0.143,-9.501 0.613,-1.397 1.483,-2.662 2.303,-3.948 0.393,-0.617 0.791,-1.31 0.685,-2.034 -0.046,-0.311 -0.185,-0.616 -0.148,-0.929 0.343,-2.876 7.71,-4.922 9.929,-5.551 2.195,-0.624 4.597,-1.226 6.886,-1.197 2.573,0.034 5.237,0.785 7.736,-0.167 0.537,-0.204 1.052,-0.486 1.618,-0.58 1.26,-0.209 2.452,0.533 3.636,1.014 1.507,0.614 3.176,0.825 4.788,0.606 3.354,-0.456 5.23,-0.59 8.418,0.636 1.657,0.637 3.54,1.166 5.164,0.451 C 1.08,14.343 1.715,4.836 0,0 m -45.741,39.702 c 2.746,0.301 5.731,0.241 8.212,-1.123 2.732,-1.502 4.237,-4.613 6.514,-6.689 0.957,-0.873 1.981,-1.69 2.764,-2.721 0.784,-1.031 1.314,-2.336 1.101,-3.613 -0.69,-4.157 -8.125,-3.41 -10.93,-2.999 0,0 -3.648,0.547 -5.29,4.013 0,0 -3.542,6.384 -3.868,8.39 0,0 -1.221,4.445 1.497,4.742 m 24.077,-11.126 c 2.911,3.002 7.19,3.232 10.871,1.601 1.927,-0.853 7.687,-3.615 7.916,-5.978 0,-0.001 0.545,-5.655 -15.687,-4.743 0,0 -8.937,3.101 -3.1,9.12 M 7.377,-7.891 C 7.071,-1.206 6.562,5.357 5.23,11.932 4.149,17.271 2.435,22.535 -0.29,27.271 c -1.853,3.221 -4.633,5.976 -6.418,9.148 -3.156,5.611 -13.12,8.37 -18.885,9.732 -4.545,1.075 -9.158,1.241 -13.65,2.663 -3.925,1.243 -7.889,2.671 -12.077,2.348 -3.511,-0.27 -8.516,-0.58 -11.405,-3.073 -0.323,-0.279 -0.62,-0.584 -0.884,-0.92 -2.722,-3.451 -7.469,-4.573 -11.304,-6.306 -5.534,-2.499 -11.473,-3.795 -15.746,-8.394 -2.668,-2.872 -4.72,-6.25 -7.09,-9.374 -1.98,-2.608 -3.946,-4.858 -4.538,-8.146 -0.474,-2.628 -0.468,-5.335 -0.309,-7.993 0.201,-3.386 0.652,-6.806 1.406,-10.117 1.459,-12.221 11.309,-19.517 11.309,-19.517 6.201,-6.748 12.22,-7.296 12.22,-7.296 5.955,-0.541 9.401,-6.825 14.494,-8.926 1.847,-0.761 3.948,-1.011 5.919,-1.215 2.841,-0.294 5.734,-0.376 8.589,-0.255 4.655,1.253 9.991,1.181 14.774,1.094 6.36,-0.116 13.232,3.098 18.681,6.061 5.762,3.133 11.405,6.794 16.06,11.449 1.969,1.969 4.019,3.195 5.226,5.862 1.129,2.494 1.419,5.303 1.295,8.013"
       style="fill:#ffffff;fill-opacity:1;fill-rule:nonzero;stroke:none"
       transform="matrix(1.3333333,0,0,-1.3333333,526.05853,518.23813)"
       clip-path="url(#clipPath16)" />
    <path
       id="path17"
       d="m 0,0 c 0.549,-1.212 1.065,-2.447 1.72,-3.602 1.694,-2.986 4.351,-5.416 7.476,-6.838 2.261,-1.029 5.331,-1.35 6.88,0.591 1.448,1.817 0.673,4.572 -0.73,6.423 -1.402,1.852 -3.349,3.289 -4.479,5.319 -2.223,3.997 -1.166,9.95 -5.009,12.431 -2.986,1.927 -6.883,0.329 -10.161,-1.045 -14.769,-6.19 -31.726,-6.998 -47.017,-2.243 -4.677,1.455 -9.433,3.438 -14.291,2.808 -1.615,-0.209 -3.417,-0.398 -3.411,-2.801 0.002,-0.693 1.001,-4.543 2.428,-5.833 5.195,-4.698 13.604,-4.785 21.839,-8.065 6.874,-2.739 13.538,-10.46 18.976,-11.337 6.635,-1.069 11.408,-8.862 12.379,-15.678 0.865,-6.073 5.501,-11.732 5.393,-17.903 -0.078,-4.433 -2.984,-8.907 -3.487,-13.285 -0.533,-4.628 0.679,-9.353 -2.685,-13.967 -2.946,-4.042 -3.973,-9.018 -7.984,-11.957 -8.881,-6.509 -21.885,-3.707 -31.402,-9.247 -0.881,-0.513 -2.229,-2.016 -1.481,-3.093 0.688,-0.989 4.772,-0.372 5.929,-0.399 4.477,-0.106 8.969,-1.422 13.405,-0.815 9.533,1.303 17.229,-0.236 26.893,-4.711 3.446,-1.596 6.336,-1.469 10.79,-1.102 1.765,0.145 -2.079,3.445 -2.5,3.757 -1.978,1.458 -4.304,2.4 -6.554,3.347 -0.861,0.362 -1.85,0.9 -1.926,1.831 -0.071,0.868 0.763,1.585 1.618,1.752 0.855,0.167 1.73,-0.053 2.593,-0.171 3.926,-0.538 9.428,0.292 10.392,4.072 1.015,3.978 3.923,6.512 4.606,10.243 0.861,4.708 -2.658,9.827 -0.511,14.239 2.096,4.307 -3.369,9.689 -1.192,13.956 1.159,2.272 3.427,3.919 4.204,6.348 1.323,4.133 -1.96,9.465 1.035,12.604 2.302,2.414 6.252,1.265 9.585,1.389 3.583,0.133 7.67,1.994 10.864,-0.479 1.398,-1.082 2.408,-2.577 3.405,-4.038 3.074,-4.504 6.785,-8.486 10.422,-12.549 3.317,-3.704 9.121,-6.155 9.821,-2.087 0.084,0.485 0.01,1.004 -0.202,1.449 -7.05,14.821 -22.025,29.691 -41.105,27.21 -4.617,-0.6 -8.81,0.234 -13.895,-0.895 -11.294,-2.51 -18.618,13.848 -29.641,17.363 -1.005,0.32 -2.07,0.583 -2.876,1.264 -0.806,0.68 -1.245,1.944 -0.64,2.809 0.424,0.607 1.202,0.832 1.919,1.016 4.031,1.034 8.062,2.068 12.093,3.103 1.223,0.314 2.475,0.64 3.516,1.355 1.491,1.024 2.442,2.772 4.083,3.533 2.426,1.127 5.351,-0.418 6.956,-2.557 C -1.15,2.437 -0.557,1.23 0,0"
       style="fill:#ffffff;fill-opacity:1;fill-rule:nonzero;stroke:none"
       transform="matrix(1.3333333,0,0,-1.3333333,559.27933,447.3512)"
       clip-path="url(#clipPath18)" />
    <path
       id="path19"
       d="M 0,0 C 0,0 -3.328,2.197 -1.664,5.883 -1.113,8.019 0.839,17.206 4.527,15.499 5.35,15.118 5.883,14.307 6.299,13.501 7.907,10.384 8.741,6.663 9.151,3.196 9.38,1.251 9.248,-0.348 8.345,-2.131 7.625,-3.552 6.747,-4.978 6.692,-6.571 c -0.096,-2.804 2.345,-5.01 4.76,-6.438 2.415,-1.429 6.59,-2.533 6.553,-5.106 -0.022,-1.572 1.014,-2.974 1.077,-4.545 0.045,-1.14 -0.125,-2.504 -1.139,-3.029 -1.19,-0.615 -2.55,0.38 -3.503,1.321 -2.442,2.414 -5.05,1.536 -5.686,-1.865 -0.464,-2.476 -0.46,-5.035 -0.013,-7.514 0.582,-3.225 -0.502,-6.427 1.104,-9.515 0.56,-1.613 1.262,-3.197 2.062,-4.704 1.249,-2.354 3.645,-4.063 4.613,-6.483 0.546,-1.363 0.53,-3.008 -0.305,-4.215 -0.836,-1.207 -2.576,-1.794 -3.869,-1.1 -1.261,0.677 -1.747,2.233 -2.775,3.229 -1.467,1.422 -3.979,2.381 -5.788,1.429 -6.55,-3.445 -15.361,0.496 -20.771,0.229 -0.374,-0.018 -0.744,-0.19 -1.105,-0.091 -0.36,0.098 -0.675,0.471 -0.567,0.829 0.065,0.214 0.255,0.362 0.437,0.492 2.888,2.059 9.822,1.141 13.085,2.467 1.261,0.512 1.805,0.847 1.876,2.254 0.172,3.399 0.594,6.785 1.261,10.123 0.56,2.796 1.293,5.556 1.811,8.361 0.463,2.506 0.082,5.602 1.049,7.929 0.25,0.602 0.654,1.193 0.577,1.84 -0.123,1.034 -1.423,1.526 -2.444,1.321 -1.021,-0.205 -1.895,-0.852 -2.876,-1.203 -0.981,-0.35 -2.276,-0.291 -2.824,0.595 -0.524,0.848 0.294,1.8 0.49,2.778 0.97,4.819 5.095,3.058 7.445,5.209 C 4.923,-8.591 3.793,-2.504 0,0"
       style="fill:#ffffff;fill-opacity:1;fill-rule:nonzero;stroke:none"
       transform="matrix(1.3333333,0,0,-1.3333333,592.99987,516.1164)"
       clip-path="url(#clipPath20)" />
  </g>
</svg>
